# xmcd
#
# Track frame offsets: 
#        150
#        30747
#        60039
#        84061
#        113212
#        120712
#        148184
#        177126
#        198360
#        212886
#        222906
#        226868
#        241445
#
# Disc length: 3406 seconds
#
# Revision: 0
# Processed by: cddbd v1.5.2PL0 Copyright (c) Steve Scherf et al.
# Submitted via: ExactAudioCopy v1.0b4
#
DISCID=ad0d4c0d
DTITLE=Roger Chapman and The Shortlist - Live At Grugahalle 1981 [disk2]
DYEAR=2014
DGENRE=Blues Rock
TTITLE0=Common Touch
TTITLE1=Making The Same Mistake
TTITLE2=Midnite Child
TTITLE3=Stone Free
TTITLE4=Goodbye Reprise
TTITLE5=Blood And Sand
TTITLE6=Let's Spend The Night Together
TTITLE7=Jesus And The Devil
TTITLE8=Can't Get In
TTITLE9=Hey, Bo Diddley
TTITLE10=Sgt. Peppers Lonely Hearts Club Band
TTITLE11=Help Me
TTITLE12=Prisoner (Reprise)
EXTD=
EXTT0=
EXTT1=
EXTT2=
EXTT3=
EXTT4=
EXTT5=
EXTT6=
EXTT7=
EXTT8=
EXTT9=
EXTT10=
EXTT11=
EXTT12=
PLAYORDER=
